<mxfile host="app.diagrams.net" modified="2023-12-02T08:01:14.972Z" agent="Mozilla/5.0 (Windows NT 10.0; Win64; x64) AppleWebKit/537.36 (KHTML, like Gecko) Chrome/119.0.0.0 Safari/537.36" etag="hn9teivyMNZkx6ca7vmw" version="22.1.5" type="github">
  <diagram name="第 1 页" id="j26vempVxDxUi7KMocI5">
    <mxGraphModel dx="1434" dy="750" grid="1" gridSize="10" guides="1" tooltips="1" connect="1" arrows="1" fold="1" page="1" pageScale="1" pageWidth="827" pageHeight="1169" math="1" shadow="0">
      <root>
        <mxCell id="0" />
        <mxCell id="1" parent="0" />
        <mxCell id="epeXMBbqgZjnkjBMpl8b-1" value="&lt;font style=&quot;font-size: 20px;&quot;&gt;$$\vec{z}_{2}$$&lt;/font&gt;" style="ellipse;whiteSpace=wrap;html=1;aspect=fixed;rounded=1;" vertex="1" parent="1">
          <mxGeometry x="110" y="200" width="70" height="70" as="geometry" />
        </mxCell>
        <mxCell id="epeXMBbqgZjnkjBMpl8b-6" value="$$\vec{z}_{1}$$" style="ellipse;whiteSpace=wrap;html=1;aspect=fixed;fontSize=20;rounded=1;" vertex="1" parent="1">
          <mxGeometry x="380" y="320.5" width="89" height="89" as="geometry" />
        </mxCell>
        <mxCell id="epeXMBbqgZjnkjBMpl8b-7" value="&lt;font style=&quot;font-size: 20px;&quot;&gt;$$\vec{z}_{4}$$&lt;/font&gt;" style="ellipse;whiteSpace=wrap;html=1;aspect=fixed;rounded=1;" vertex="1" parent="1">
          <mxGeometry x="110" y="460" width="70" height="70" as="geometry" />
        </mxCell>
        <mxCell id="epeXMBbqgZjnkjBMpl8b-8" value="&lt;font style=&quot;font-size: 20px;&quot;&gt;$$\vec{z}_{3}$$&lt;/font&gt;" style="ellipse;whiteSpace=wrap;html=1;aspect=fixed;rounded=1;" vertex="1" parent="1">
          <mxGeometry x="110" y="330" width="70" height="70" as="geometry" />
        </mxCell>
        <mxCell id="epeXMBbqgZjnkjBMpl8b-16" value="" style="endArrow=classic;html=1;rounded=1;exitX=1;exitY=0.5;exitDx=0;exitDy=0;fillColor=#dae8fc;strokeColor=#6c8ebf;strokeWidth=2;" edge="1" parent="1" source="epeXMBbqgZjnkjBMpl8b-1">
          <mxGeometry width="50" height="50" relative="1" as="geometry">
            <mxPoint x="390" y="510" as="sourcePoint" />
            <mxPoint x="400" y="326" as="targetPoint" />
          </mxGeometry>
        </mxCell>
        <mxCell id="epeXMBbqgZjnkjBMpl8b-17" value="" style="endArrow=classic;html=1;rounded=1;exitX=0.971;exitY=0.643;exitDx=0;exitDy=0;fillColor=#d5e8d4;strokeColor=#82b366;strokeWidth=2;exitPerimeter=0;entryX=0;entryY=0;entryDx=0;entryDy=0;" edge="1" parent="1" source="epeXMBbqgZjnkjBMpl8b-1" target="epeXMBbqgZjnkjBMpl8b-6">
          <mxGeometry width="50" height="50" relative="1" as="geometry">
            <mxPoint x="190" y="245" as="sourcePoint" />
            <mxPoint x="390" y="330" as="targetPoint" />
          </mxGeometry>
        </mxCell>
        <mxCell id="epeXMBbqgZjnkjBMpl8b-18" value="" style="endArrow=classic;html=1;rounded=1;exitX=1;exitY=0.357;exitDx=0;exitDy=0;entryX=0.011;entryY=0.41;entryDx=0;entryDy=0;fillColor=#dae8fc;strokeColor=#6c8ebf;strokeWidth=2;exitPerimeter=0;entryPerimeter=0;" edge="1" parent="1" source="epeXMBbqgZjnkjBMpl8b-8" target="epeXMBbqgZjnkjBMpl8b-6">
          <mxGeometry width="50" height="50" relative="1" as="geometry">
            <mxPoint x="192" y="390" as="sourcePoint" />
            <mxPoint x="419" y="481" as="targetPoint" />
          </mxGeometry>
        </mxCell>
        <mxCell id="epeXMBbqgZjnkjBMpl8b-19" value="" style="endArrow=classic;html=1;rounded=1;exitX=1;exitY=0.5;exitDx=0;exitDy=0;fillColor=#d5e8d4;strokeColor=#82b366;strokeWidth=2;entryX=0;entryY=0.5;entryDx=0;entryDy=0;" edge="1" parent="1" source="epeXMBbqgZjnkjBMpl8b-8" target="epeXMBbqgZjnkjBMpl8b-6">
          <mxGeometry width="50" height="50" relative="1" as="geometry">
            <mxPoint x="190" y="400" as="sourcePoint" />
            <mxPoint x="405" y="489" as="targetPoint" />
          </mxGeometry>
        </mxCell>
        <mxCell id="epeXMBbqgZjnkjBMpl8b-20" value="" style="endArrow=classic;html=1;rounded=1;exitX=1;exitY=0.5;exitDx=0;exitDy=0;entryX=0.112;entryY=0.781;entryDx=0;entryDy=0;entryPerimeter=0;fillColor=#dae8fc;strokeColor=#6c8ebf;strokeWidth=2;" edge="1" parent="1" source="epeXMBbqgZjnkjBMpl8b-7" target="epeXMBbqgZjnkjBMpl8b-6">
          <mxGeometry width="50" height="50" relative="1" as="geometry">
            <mxPoint x="212" y="510" as="sourcePoint" />
            <mxPoint x="439" y="601" as="targetPoint" />
          </mxGeometry>
        </mxCell>
        <mxCell id="epeXMBbqgZjnkjBMpl8b-21" value="" style="endArrow=classic;html=1;rounded=1;exitX=1.029;exitY=0.657;exitDx=0;exitDy=0;fillColor=#d5e8d4;strokeColor=#82b366;strokeWidth=2;exitPerimeter=0;entryX=0;entryY=1;entryDx=0;entryDy=0;" edge="1" parent="1" source="epeXMBbqgZjnkjBMpl8b-7" target="epeXMBbqgZjnkjBMpl8b-6">
          <mxGeometry width="50" height="50" relative="1" as="geometry">
            <mxPoint x="180" y="500" as="sourcePoint" />
            <mxPoint x="420" y="410" as="targetPoint" />
          </mxGeometry>
        </mxCell>
        <mxCell id="epeXMBbqgZjnkjBMpl8b-26" value="" style="curved=1;endArrow=classic;html=1;rounded=0;exitX=0.315;exitY=0.062;exitDx=0;exitDy=0;exitPerimeter=0;entryX=0.663;entryY=0.017;entryDx=0;entryDy=0;entryPerimeter=0;fillColor=#dae8fc;strokeColor=#6c8ebf;strokeWidth=2;" edge="1" parent="1" source="epeXMBbqgZjnkjBMpl8b-6" target="epeXMBbqgZjnkjBMpl8b-6">
          <mxGeometry width="50" height="50" relative="1" as="geometry">
            <mxPoint x="410" y="280" as="sourcePoint" />
            <mxPoint x="430" y="330" as="targetPoint" />
            <Array as="points">
              <mxPoint x="390" y="300" />
              <mxPoint x="390" y="280" />
              <mxPoint x="420" y="260" />
              <mxPoint x="450" y="290" />
            </Array>
          </mxGeometry>
        </mxCell>
        <mxCell id="epeXMBbqgZjnkjBMpl8b-28" value="" style="curved=1;endArrow=classic;html=1;rounded=0;exitX=0.449;exitY=0.017;exitDx=0;exitDy=0;exitPerimeter=0;fillColor=#d5e8d4;strokeColor=#82b366;strokeWidth=2;" edge="1" parent="1" source="epeXMBbqgZjnkjBMpl8b-6">
          <mxGeometry width="50" height="50" relative="1" as="geometry">
            <mxPoint x="410" y="320" as="sourcePoint" />
            <mxPoint x="425" y="322" as="targetPoint" />
            <Array as="points">
              <mxPoint x="400" y="310" />
              <mxPoint x="400" y="280" />
              <mxPoint x="430" y="270" />
              <mxPoint x="440" y="300" />
            </Array>
          </mxGeometry>
        </mxCell>
        <mxCell id="epeXMBbqgZjnkjBMpl8b-29" value="" style="endArrow=classic;html=1;rounded=1;exitX=1;exitY=0.5;exitDx=0;exitDy=0;fillColor=#dae8fc;strokeColor=#6c8ebf;strokeWidth=2;entryX=0;entryY=0.5;entryDx=0;entryDy=0;" edge="1" parent="1" target="epeXMBbqgZjnkjBMpl8b-31">
          <mxGeometry width="50" height="50" relative="1" as="geometry">
            <mxPoint x="471" y="360" as="sourcePoint" />
            <mxPoint x="610" y="360" as="targetPoint" />
          </mxGeometry>
        </mxCell>
        <mxCell id="epeXMBbqgZjnkjBMpl8b-30" value="" style="endArrow=classic;html=1;rounded=1;exitX=0.971;exitY=0.643;exitDx=0;exitDy=0;fillColor=#d5e8d4;strokeColor=#82b366;strokeWidth=2;exitPerimeter=0;entryX=0;entryY=0.5;entryDx=0;entryDy=0;" edge="1" parent="1" target="epeXMBbqgZjnkjBMpl8b-31">
          <mxGeometry width="50" height="50" relative="1" as="geometry">
            <mxPoint x="469" y="370" as="sourcePoint" />
            <mxPoint x="610" y="370" as="targetPoint" />
          </mxGeometry>
        </mxCell>
        <mxCell id="epeXMBbqgZjnkjBMpl8b-31" value="$$\vec{z}_1^\prime $$" style="ellipse;whiteSpace=wrap;html=1;aspect=fixed;fontSize=20;rounded=1;" vertex="1" parent="1">
          <mxGeometry x="650" y="320.5" width="89" height="89" as="geometry" />
        </mxCell>
        <mxCell id="epeXMBbqgZjnkjBMpl8b-32" value="$$\vec{\alpha}_{12}$$" style="text;html=1;align=center;verticalAlign=middle;resizable=0;points=[];autosize=1;strokeColor=none;fillColor=none;fontSize=14;" vertex="1" parent="1">
          <mxGeometry x="190" y="240" width="160" height="30" as="geometry" />
        </mxCell>
        <mxCell id="epeXMBbqgZjnkjBMpl8b-33" value="$$\vec{\alpha}_{14}$$" style="text;html=1;align=center;verticalAlign=middle;resizable=0;points=[];autosize=1;strokeColor=none;fillColor=none;fontSize=14;" vertex="1" parent="1">
          <mxGeometry x="190" y="420" width="160" height="30" as="geometry" />
        </mxCell>
        <mxCell id="epeXMBbqgZjnkjBMpl8b-34" value="$$\vec{\alpha}_{13}$$" style="text;html=1;align=center;verticalAlign=middle;resizable=0;points=[];autosize=1;strokeColor=none;fillColor=none;fontSize=14;" vertex="1" parent="1">
          <mxGeometry x="190" y="330" width="160" height="30" as="geometry" />
        </mxCell>
        <mxCell id="epeXMBbqgZjnkjBMpl8b-35" value="$$\vec{\alpha}_{11}$$" style="text;html=1;align=center;verticalAlign=middle;resizable=0;points=[];autosize=1;strokeColor=none;fillColor=none;fontSize=14;" vertex="1" parent="1">
          <mxGeometry x="334" y="238" width="160" height="30" as="geometry" />
        </mxCell>
      </root>
    </mxGraphModel>
  </diagram>
</mxfile>
